HIERARCHY
ROOT Hips
{
	OFFSET 11.2666 35.4190 -54.3259
	CHANNELS 6 Xposition Yposition Zposition Xrotation Yrotation Zrotation
	JOINT Spine
	{
		OFFSET 0.0000 8.4730 0.0000
		CHANNELS 3 Xrotation Yrotation Zrotation
		JOINT Head
		{
			OFFSET 0.0000 13.8244 0.0000
			CHANNELS 3 Xrotation Yrotation Zrotation
			End Site
			{
				OFFSET 0.0000 4.5275 0.0000
			}
		}
		JOINT LeftShoulder
		{
			OFFSET 0.0000 9.9635 0.0000
			CHANNELS 3 Xrotation Yrotation Zrotation
			JOINT LeftArm
			{
				OFFSET 7.3084 0.0000 0.0000
				CHANNELS 3 Xrotation Yrotation Zrotation
				JOINT LeftForeArm
				{
					OFFSET 10.7061 0.0000 0.0000
					CHANNELS 3 Xrotation Yrotation Zrotation
					JOINT LeftHand
					{
						OFFSET 8.4968 0.0000 0.0000
						CHANNELS 3 Xrotation Yrotation Zrotation
						JOINT LeftHandThumb1
						{
							OFFSET 0.0000 0.0000 0.0000
							CHANNELS 3 Xrotation Yrotation Zrotation
							End Site
							{
								OFFSET 0.0000 0.0000 3.9370
							}
						}
						JOINT LeftHand_End
						{
							OFFSET 3.9370 0.0000 0.0000
							CHANNELS 3 Xrotation Yrotation Zrotation
							End Site
							{
								OFFSET 0.0000 0.0000 0.0000
							}
						}
					}
				}
			}
		}
		JOINT RightShoulder
		{
			OFFSET 0.0000 9.9635 0.0000
			CHANNELS 3 Xrotation Yrotation Zrotation
			JOINT RightArm
			{
				OFFSET -7.3084 0.0000 0.0000
				CHANNELS 3 Xrotation Yrotation Zrotation
				JOINT RightForeArm
				{
					OFFSET -10.7061 0.0000 0.0000
					CHANNELS 3 Xrotation Yrotation Zrotation
					JOINT RightHand
					{
						OFFSET -8.4968 0.0000 0.0000
						CHANNELS 3 Xrotation Yrotation Zrotation
						JOINT RightHandThumb1
						{
							OFFSET 0.0000 0.0000 0.0000
							CHANNELS 3 Xrotation Yrotation Zrotation
							End Site
							{
								OFFSET 0.0000 0.0000 3.9370
							}
						}
						JOINT RightHand_End
						{
							OFFSET -3.9370 0.0000 0.0000
							CHANNELS 3 Xrotation Yrotation Zrotation
							End Site
							{
								OFFSET 0.0000 0.0000 0.0000
							}
						}
					}
				}
			}
		}
	}
	JOINT LeftUpLeg
	{
		OFFSET 4.0316 0.0000 0.0000
		CHANNELS 3 Xrotation Yrotation Zrotation
		JOINT LeftLeg
		{
			OFFSET 0.0000 -16.7874 0.0000
			CHANNELS 3 Xrotation Yrotation Zrotation
			JOINT LeftFoot
			{
				OFFSET 0.0000 -15.4942 0.0000
				CHANNELS 3 Xrotation Yrotation Zrotation
				JOINT LeftToeBase
				{
					OFFSET 0.0000 -1.4513 5.4164
					CHANNELS 3 Xrotation Yrotation Zrotation
					End Site
					{
						OFFSET 0.0000 0.0000 2.9527
					}
				}
			}
		}
	}
	JOINT RightUpLeg
	{
		OFFSET -4.0316 0.0000 0.0000
		CHANNELS 3 Xrotation Yrotation Zrotation
		JOINT RightLeg
		{
			OFFSET 0.0000 -16.7874 0.0000
			CHANNELS 3 Xrotation Yrotation Zrotation
			JOINT RightFoot
			{
				OFFSET 0.0000 -15.4942 0.0000
				CHANNELS 3 Xrotation Yrotation Zrotation
				JOINT RightToeBase
				{
					OFFSET 0.0000 -1.4513 5.4164
					CHANNELS 3 Xrotation Yrotation Zrotation
					End Site
					{
						OFFSET 0.0000 0.0000 2.9527
					}
				}
			}
		}
	}
}
MOTION
Frames: 12
Frame Time: 0.008333
-6.5115 35.5548 -163.0160 1.1423 -13.2629 -2.0124 6.2229 -2.8009 2.4343 -8.2171 -0.5798 -0.8076 1.1569 2.4698 4.8102 -4.3126 -9.9810 -80.2506 24.0705 -14.3868 6.3334 0.5114 8.6955 -3.3787 -0.0000 0.0000 -0.0000 -0.0000 0.0000 -0.0000 8.7767 -5.5681 -3.7862 -18.5533 -25.5000 60.2005 2.2435 30.3297 -1.1333 -0.1733 -1.8737 -5.2866 -0.0000 0.0000 -0.0000 -0.0000 0.0000 -0.0000 7.2710 12.9822 1.2978 6.9225 0.0000 -0.0000 -17.2026 9.1310 -6.0776 -6.8264 0.0000 0.0000 -24.4224 -4.3338 -8.1551 40.4428 0.0000 -0.0000 -8.1978 -3.2530 12.9451 -8.7206 -0.0000 -0.0000 
-6.5972 35.5371 -162.9190 1.2343 -13.5924 -2.1589 6.3578 -3.0716 2.7130 -8.3578 -0.0875 -0.8637 1.1810 2.3725 4.6653 -4.6931 -12.8374 -81.8205 23.5785 -14.8971 6.4019 0.4363 8.3950 -2.9859 -0.0000 0.0000 -0.0000 -0.0000 0.0000 -0.0000 8.9685 -5.6630 -3.4513 -17.7171 -25.2092 61.5578 2.2536 30.1480 -1.1323 -0.1714 -1.8057 -5.4247 -0.0000 0.0000 -0.0000 -0.0000 0.0000 -0.0000 7.3766 13.2767 1.5264 6.8978 0.0000 -0.0000 -17.3407 9.1948 -6.2056 -6.9795 -0.0000 0.0000 -24.6673 -4.1624 -8.4272 39.0279 0.0000 0.0000 -7.2574 -2.8717 13.6491 -9.1323 -0.0000 0.0000 
-6.6858 35.5176 -162.8140 1.2704 -14.0411 -2.2222 6.5310 -3.2211 2.8075 -8.4618 0.4031 -0.7948 1.3321 2.2469 4.5652 -5.3662 -15.5846 -83.3146 23.2265 -15.4830 6.5354 0.3776 7.9503 -2.7280 -0.0000 0.0000 -0.0000 -0.0000 0.0000 -0.0000 9.1932 -5.7422 -3.0423 -16.8989 -24.8113 62.8821 1.9423 29.9199 -0.9691 -0.1753 -1.7992 -5.5658 -0.0000 0.0000 -0.0000 -0.0000 0.0000 -0.0000 7.4402 14.4463 1.7012 7.1201 0.0000 0.0000 -17.5998 8.5508 -6.2680 -6.9540 -0.0000 -0.0000 -24.8862 -3.8805 -8.7434 37.6352 0.0000 0.0000 -6.5695 -2.4196 13.8651 -9.2044 0.0000 -0.0000 
-6.7729 35.4935 -162.7130 1.3525 -14.3683 -2.2900 6.7208 -3.5799 2.9526 -8.6659 0.9619 -0.7117 1.3987 1.8868 4.4755 -5.8324 -17.5514 -84.7659 23.5868 -16.5694 7.0975 0.3716 7.7991 -2.7363 -0.0000 0.0000 -0.0000 -0.0000 0.0000 -0.0000 9.4435 -5.7821 -2.6490 -16.1231 -24.2241 64.1674 1.5971 29.6152 -0.7894 -0.1714 -1.7388 -5.6302 -0.0000 0.0000 -0.0000 -0.0000 0.0000 -0.0000 7.4094 14.9928 1.8836 7.4379 0.0000 -0.0000 -17.9383 8.3992 -6.1868 -7.0256 -0.0000 0.0000 -25.0883 -3.7054 -9.1075 36.0941 0.0000 0.0000 -6.0026 -1.9869 14.4721 -9.1262 -0.0000 0.0000 
-6.8609 35.4638 -162.6110 1.4266 -14.7080 -2.3077 6.8928 -3.8929 3.0896 -8.8031 1.5332 -0.7776 1.3053 1.5913 4.3571 -6.4013 -19.8466 -86.1531 23.4676 -17.5674 7.4652 0.3752 7.7553 -2.7781 -0.0000 0.0000 -0.0000 -0.0000 0.0000 -0.0000 9.5590 -5.7930 -2.4119 -15.1271 -23.6459 65.5635 1.3089 29.1667 -0.6380 -0.1461 -1.4444 -5.7778 -0.0000 0.0000 -0.0000 -0.0000 0.0000 -0.0000 7.4818 15.3942 1.9922 7.5932 0.0000 0.0000 -18.1884 8.3551 -6.1546 -6.9851 -0.0000 -0.0000 -25.3036 -3.5440 -9.5126 34.5657 -0.0000 -0.0000 -5.6203 -1.5608 14.7054 -9.0438 0.0000 -0.0000 
-6.9537 35.4329 -162.5020 1.4614 -15.1119 -2.3249 7.0952 -4.0988 3.1473 -8.9195 2.0216 -0.6888 1.2787 1.2847 4.2416 -7.1049 -21.6065 -87.4635 23.7570 -18.6753 8.0224 0.3899 7.4853 -2.9901 -0.0000 0.0000 -0.0000 -0.0000 0.0000 -0.0000 9.6493 -5.7809 -2.0892 -14.0743 -22.9457 66.8362 0.8972 28.8173 -0.4325 -0.1613 -1.5768 -5.8404 -0.0000 0.0000 -0.0000 -0.0000 0.0000 -0.0000 7.7640 15.5816 2.0437 7.4584 -0.0000 -0.0000 -18.2993 8.5768 -6.1761 -7.0130 -0.0000 0.0000 -25.4618 -3.3762 -9.8916 32.9758 -0.0000 0.0000 -5.3233 -1.1192 14.8677 -9.1755 -0.0000 -0.0000 
-7.0542 35.3954 -162.3880 1.5114 -15.4326 -2.3688 7.2964 -4.4835 3.2779 -9.0851 2.6216 -0.6588 1.3340 1.0249 4.0948 -7.8708 -23.3340 -88.6384 24.0209 -20.0037 8.6682 0.4139 7.2057 -3.2965 -0.0000 0.0000 -0.0000 -0.0000 0.0000 -0.0000 9.8940 -5.7521 -1.8397 -13.3049 -22.2736 68.1118 0.6477 28.2453 -0.3065 -0.1407 -1.4098 -5.6981 -0.0000 0.0000 -0.0000 -0.0000 0.0000 -0.0000 8.0560 14.9111 2.1164 7.3559 -0.0000 -0.0000 -18.6120 9.5690 -6.5317 -6.7471 0.0000 -0.0000 -25.5896 -3.2225 -10.2495 31.3730 0.0000 0.0000 -5.2075 -0.8651 14.9935 -9.1417 -0.0000 0.0000 
-7.1548 35.3579 -162.2700 1.5506 -15.7814 -2.3702 7.5156 -4.7793 3.3489 -9.2572 3.1644 -0.6156 1.3157 0.5838 3.9885 -8.5874 -24.8889 -89.7391 24.2671 -21.4219 9.3502 0.4240 6.9021 -3.5242 -0.0000 0.0000 -0.0000 -0.0000 0.0000 -0.0000 10.0488 -5.8108 -1.5667 -12.6545 -21.7004 69.3285 0.7655 27.4808 -0.3532 -0.1228 -1.2722 -5.5156 -0.0000 0.0000 -0.0000 -0.0000 0.0000 -0.0000 8.2610 14.7969 2.1640 7.4268 0.0000 -0.0000 -18.8098 10.0037 -6.4629 -6.9278 0.0000 0.0000 -25.7336 -3.1922 -10.6431 29.6961 0.0000 -0.0000 -4.9791 -0.6121 14.6992 -9.0959 0.0000 0.0000 
-7.2584 35.3155 -162.1410 1.5445 -16.1107 -2.3354 7.7617 -5.2313 3.3605 -9.4192 3.8940 -0.5302 1.2075 0.3183 3.8372 -9.1185 -27.2401 -90.4888 23.6557 -23.2952 9.8280 0.4207 6.6790 -3.6121 -0.0000 0.0000 -0.0000 -0.0000 0.0000 -0.0000 10.2336 -5.7913 -1.3218 -12.1297 -20.9770 70.5061 0.9501 26.5092 -0.4241 -0.1121 -1.1828 -5.4146 -0.0000 0.0000 -0.0000 -0.0000 0.0000 -0.0000 8.4751 14.9647 2.1952 7.6124 0.0000 0.0000 -19.0366 10.1341 -6.3687 -7.1408 -0.0000 0.0000 -25.7939 -3.1026 -11.0905 28.0362 0.0000 -0.0000 -4.7664 -0.4775 14.8006 -9.0500 0.0000 0.0000 
-7.3754 35.2710 -161.9840 1.3586 -16.5131 -2.3702 8.1891 -5.7188 3.4073 -9.6045 4.7421 -0.4731 1.0919 0.2161 3.6897 -9.7434 -30.2576 -91.0393 22.4635 -25.3373 10.0342 0.3716 6.4823 -3.2877 -0.0000 0.0000 -0.0000 -0.0000 0.0000 -0.0000 10.6184 -5.7235 -1.0869 -11.8179 -19.8939 71.6912 2.0404 25.3936 -0.8753 -0.1328 -1.3101 -5.7888 -0.0000 0.0000 -0.0000 -0.0000 0.0000 -0.0000 8.9753 15.2975 2.2096 7.6712 -0.0000 -0.0000 -19.2334 10.2565 -6.0488 -7.2789 -0.0000 0.0000 -25.6054 -3.0237 -11.4713 26.2785 0.0000 0.0000 -4.5197 -0.4351 15.0102 -9.0158 -0.0000 0.0000 
-7.4700 35.2199 -161.8280 1.2518 -16.9818 -2.2375 8.5225 -6.0310 3.2991 -9.8182 5.5199 -0.4185 0.9628 -0.0305 3.6055 -10.4671 -33.4215 -91.4726 21.4243 -27.4999 10.2696 0.3419 6.4386 -3.0459 -0.0000 0.0000 -0.0000 -0.0000 0.0000 -0.0000 10.7327 -5.7091 -0.8804 -11.3164 -19.1986 72.7200 1.5919 24.3663 -0.6569 -0.1127 -1.2247 -5.2573 -0.0000 0.0000 -0.0000 -0.0000 0.0000 -0.0000 9.5025 15.3903 2.0062 7.6335 0.0000 -0.0000 -19.3721 10.5973 -5.9575 -7.4289 0.0000 0.0000 -25.5922 -2.9682 -12.0534 24.6040 0.0000 -0.0000 -4.3594 -0.2489 15.4915 -8.8829 0.0000 0.0000 
-7.5647 35.1560 -161.6630 1.1230 -17.4337 -2.0311 8.8721 -6.4499 3.1136 -10.0563 6.3421 -0.3924 0.7338 -0.1795 3.6127 -11.0707 -36.5827 -91.7874 21.5257 -29.6304 11.0346 0.2902 6.1981 -2.6856 -0.0000 0.0000 -0.0000 -0.0000 0.0000 -0.0000 10.5682 -5.5500 -0.8516 -10.4480 -18.4281 73.8850 1.3868 23.2649 -0.5478 -0.1127 -1.2284 -5.2416 -0.0000 0.0000 -0.0000 -0.0000 0.0000 -0.0000 10.0766 15.1939 1.6921 7.6516 0.0000 0.0000 -19.5906 11.2484 -5.7299 -7.5481 -0.0000 0.0000 -25.5837 -2.9206 -12.6992 22.9926 -0.0000 -0.0000 -4.2916 -0.1367 15.7208 -8.8334 0.0000 0.0000 
